<svg width="16" height="16" viewBox="0 0 16 16" fill="none" xmlns="http://www.w3.org/2000/svg">
<path d="M12.6088 0H10.3075C7.5125 0 5.7075 1.59074 5.7075 4.05342V5.62817H3.39125C3.175 5.62817 3 5.77902 3 5.96529V8.67367C3 8.85994 3.175 9.00964 3.39125 9.00964H5.7075V15.664C5.7075 15.8492 5.8825 16 6.0975 16H9.36C9.5775 16 9.7525 15.8492 9.7525 15.664V9.0085H12.6075C12.8238 9.0085 12.9987 8.8588 12.9987 8.67252L13 5.96529C12.9995 5.92078 12.989 5.87684 12.9692 5.83616C12.9494 5.79548 12.9208 5.75893 12.885 5.72873C12.8101 5.66472 12.7113 5.62918 12.6088 5.62931H9.7525V4.33798C9.7525 3.57689 9.96375 3.19063 11.1187 3.19063L12.6088 3.18606C12.8238 3.18606 12.9987 3.03635 12.9987 2.85008V0.335976C13 0.150846 12.825 0 12.6088 0Z" fill="#111112"/>
</svg>
