<svg width="48" height="48" viewBox="0 0 48 48" fill="none" xmlns="http://www.w3.org/2000/svg">
<circle opacity="0.12" cx="24" cy="24" r="24" fill="#545E76"/>
<g clip-path="url(#clip0_445_6466)">
<path d="M14.196 28.9996V27.7309C14.196 27.1631 14.486 26.6993 15.066 26.3394C15.646 25.9795 16.4252 25.7996 17.4036 25.7996H17.676C17.7694 25.7996 17.856 25.804 17.936 25.8126C17.816 26.084 17.7182 26.3542 17.6424 26.6232C17.5667 26.8924 17.5288 27.1833 17.5288 27.4961V28.9996H14.196ZM18.996 28.9996V27.4996C18.996 27.0196 19.1159 26.5917 19.3556 26.2159C19.5953 25.8401 19.9354 25.5147 20.376 25.2396C20.8276 24.9729 21.3615 24.7663 21.9778 24.6196C22.594 24.4729 23.2638 24.3996 23.9873 24.3996C24.7254 24.3996 25.4024 24.4729 26.0183 24.6196C26.6341 24.7663 27.1667 24.9729 27.616 25.2396C28.056 25.5196 28.396 25.8463 28.636 26.2196C28.876 26.5929 28.996 27.0196 28.996 27.4996V28.9996H18.996ZM30.456 28.9996V27.4882C30.456 27.1811 30.4227 26.8871 30.356 26.6062C30.2894 26.3253 30.2027 26.0613 30.096 25.8141C30.176 25.8045 30.2581 25.7996 30.3423 25.7996H30.596C31.5814 25.7996 32.361 25.9757 32.935 26.328C33.509 26.6802 33.796 27.1507 33.796 27.7396V28.9996H30.456ZM17.3925 25.2396C16.9815 25.2396 16.626 25.0911 16.326 24.7941C16.026 24.4972 15.876 24.1414 15.876 23.727C15.876 23.2954 16.0265 22.9329 16.3274 22.6396C16.6283 22.3463 16.984 22.1996 17.3946 22.1996C17.8089 22.1996 18.1694 22.346 18.476 22.6388C18.7827 22.9316 18.936 23.295 18.936 23.729C18.936 24.1361 18.785 24.4896 18.4828 24.7896C18.1806 25.0896 17.8172 25.2396 17.3925 25.2396ZM30.5925 25.2396C30.1815 25.2396 29.826 25.0911 29.526 24.7941C29.226 24.4972 29.076 24.1414 29.076 23.727C29.076 23.2954 29.2265 22.9329 29.5274 22.6396C29.8283 22.3463 30.184 22.1996 30.5946 22.1996C31.0089 22.1996 31.3694 22.346 31.676 22.6388C31.9827 22.9316 32.136 23.295 32.136 23.729C32.136 24.1361 31.9849 24.4896 31.6828 24.7896C31.3806 25.0896 31.0172 25.2396 30.5925 25.2396ZM24.0153 23.7996C23.3041 23.7996 22.6897 23.5439 22.1722 23.0325C21.6548 22.5211 21.396 21.9097 21.396 21.1982C21.396 20.4658 21.6548 19.8496 22.1722 19.3496C22.6897 18.8496 23.3041 18.5996 24.0153 18.5996C24.7474 18.5996 25.3606 18.8481 25.8547 19.345C26.3489 19.8419 26.596 20.4584 26.596 21.1945C26.596 21.9096 26.3489 22.5226 25.8547 23.0334C25.3606 23.5442 24.7474 23.7996 24.0153 23.7996Z" fill="#545E76"/>
</g>
<defs>
<clipPath id="clip0_445_6466">
<rect width="19.2" height="19.2" fill="white" transform="translate(14.3992 14.3999)"/>
</clipPath>
</defs>
</svg>
