<svg width="48" height="48" viewBox="0 0 48 48" fill="none" xmlns="http://www.w3.org/2000/svg">
<circle opacity="0.12" cx="24" cy="24" r="24" fill="#545E76"/>
<g clip-path="url(#clip0_445_6472)">
<path d="M25.5981 22.6602V21.7002C26.0381 21.5295 26.4881 21.3935 26.9481 21.2922C27.4081 21.1909 27.8914 21.1402 28.3981 21.1402C28.7447 21.1402 29.0847 21.1669 29.4181 21.2202C29.7514 21.2735 30.0781 21.3402 30.3981 21.4202V22.3002C30.0781 22.1802 29.7547 22.0902 29.4281 22.0302C29.1014 21.9702 28.7581 21.9402 28.3981 21.9402C27.8914 21.9402 27.4047 22.0035 26.9381 22.1302C26.4714 22.2569 26.0247 22.4335 25.5981 22.6602ZM25.5981 27.0602V26.0802C26.0381 25.9162 26.4881 25.7852 26.9481 25.6872C27.4081 25.5892 27.8914 25.5402 28.3981 25.5402C28.7447 25.5402 29.0847 25.5669 29.4181 25.6202C29.7514 25.6735 30.0781 25.7402 30.3981 25.8202V26.7002C30.0781 26.5802 29.7547 26.4902 29.4281 26.4302C29.1014 26.3702 28.7581 26.3402 28.3981 26.3402C27.8914 26.3402 27.4047 26.4002 26.9381 26.5202C26.4714 26.6402 26.0247 26.8202 25.5981 27.0602ZM25.5981 24.8602V23.9002C26.0381 23.7295 26.4881 23.5935 26.9481 23.4922C27.4081 23.3909 27.8914 23.3402 28.3981 23.3402C28.7447 23.3402 29.0847 23.3669 29.4181 23.4202C29.7514 23.4735 30.0781 23.5402 30.3981 23.6202V24.5002C30.0781 24.3802 29.7547 24.2902 29.4281 24.2302C29.1014 24.1702 28.7581 24.1402 28.3981 24.1402C27.8914 24.1402 27.4047 24.2035 26.9381 24.3302C26.4714 24.4569 26.0247 24.6335 25.5981 24.8602ZM24.6181 29.1402C25.285 28.8069 25.9401 28.5569 26.5835 28.3902C27.2269 28.2235 27.9104 28.1402 28.634 28.1402C29.1434 28.1402 29.6681 28.1802 30.2081 28.2602C30.7481 28.3402 31.2047 28.4469 31.5781 28.5802V19.9982C31.1247 19.7595 30.6493 19.5935 30.1516 19.5002C29.654 19.4069 29.1481 19.3602 28.634 19.3602C27.9104 19.3602 27.2102 19.4702 26.5333 19.6902C25.8565 19.9102 25.2181 20.2185 24.6181 20.6151V29.1402ZM24.0817 31.4402C23.3917 30.9462 22.65 30.546 21.8565 30.2397C21.063 29.9334 20.2302 29.7802 19.3581 29.7802C18.9122 29.7802 18.4722 29.8432 18.038 29.9692C17.6038 30.0953 17.1705 30.2256 16.7381 30.3602C16.3054 30.5869 15.8706 30.5791 15.4336 30.337C14.9966 30.0949 14.7781 29.7026 14.7781 29.1602V19.9664C14.7781 19.6422 14.8514 19.3355 14.9981 19.0462C15.1447 18.7569 15.3647 18.5415 15.6581 18.4002C16.2581 18.1602 16.8616 17.9835 17.4688 17.8702C18.0759 17.7569 18.6931 17.7002 19.3203 17.7002C20.163 17.7002 20.9866 17.8169 21.7912 18.0502C22.5958 18.2835 23.3447 18.6469 24.0381 19.1402C24.7314 18.6602 25.4671 18.3002 26.2452 18.0602C27.0233 17.8202 27.835 17.7002 28.6803 17.7002C29.3088 17.7002 29.9223 17.7602 30.5206 17.8802C31.1189 18.0002 31.7193 18.1759 32.3219 18.4073C32.6127 18.5439 32.8347 18.7569 32.9881 19.0462C33.1414 19.3355 33.2181 19.6469 33.2181 19.9802V29.3802C33.2181 29.8727 32.9959 30.2258 32.5516 30.4396C32.1072 30.6533 31.6694 30.6269 31.2381 30.3602C30.819 30.2123 30.3917 30.0786 29.9562 29.9592C29.5207 29.8399 29.0794 29.7802 28.6322 29.7802C27.8024 29.7802 27.0072 29.94 26.2464 30.2597C25.4856 30.5794 24.764 30.9729 24.0817 31.4402Z" fill="#545E76"/>
</g>
<defs>
<clipPath id="clip0_445_6472">
<rect width="19.2" height="19.2" fill="white" transform="translate(14.3992 14.3999)"/>
</clipPath>
</defs>
</svg>
