<svg width="48" height="48" viewBox="0 0 48 48" fill="none" xmlns="http://www.w3.org/2000/svg">
<circle opacity="0.12" cx="24" cy="24" r="24" fill="#545E76"/>
<path d="M31.7982 20.4005H29.3562C29.8844 21.3158 30.0959 22.3798 29.9577 23.4275C29.8195 24.4752 29.3394 25.448 28.5919 26.195C27.9529 26.8467 27.1212 27.464 26.2032 28.0332C26.1457 28.0682 26.0782 28.0829 26.0114 28.0748C25.9446 28.0668 25.8825 28.0366 25.8349 27.989L23.2219 25.376C23.1651 25.3191 23.0974 25.2743 23.0229 25.2441C22.9484 25.2139 22.8686 25.199 22.7882 25.2003C22.7078 25.2015 22.6285 25.2189 22.555 25.2514C22.4815 25.2839 22.4152 25.3309 22.3602 25.3895C22.2543 25.5083 22.1984 25.6634 22.2041 25.8224C22.2099 25.9815 22.2768 26.1321 22.3909 26.243L24.6319 28.484C24.6654 28.5174 24.6905 28.5583 24.7052 28.6032C24.7199 28.6482 24.7237 28.696 24.7164 28.7427C24.7091 28.7894 24.6908 28.8338 24.6631 28.8721C24.6354 28.9104 24.599 28.9417 24.5569 28.9632C21.5787 30.5097 18.3732 31.541 17.9067 31.6865C17.6835 31.7905 17.4338 31.8233 17.1914 31.7805C16.9489 31.7377 16.7255 31.6213 16.5514 31.4473C16.3773 31.2732 16.261 31.0498 16.2182 30.8073C16.1754 30.5649 16.2082 30.3152 16.3122 30.092C16.5169 29.4387 18.4872 23.3217 21.1767 20.0907C21.2034 20.0588 21.2365 20.0327 21.2739 20.0142C21.3112 19.9958 21.352 19.9853 21.3937 19.9835C21.4353 19.9816 21.4768 19.9885 21.5157 20.0036C21.5545 20.0187 21.5898 20.0417 21.6192 20.0712L24.7729 23.2257C24.8313 23.284 24.901 23.3297 24.9778 23.3598C25.0545 23.39 25.1367 23.404 25.2191 23.4009C25.3015 23.3979 25.3824 23.3779 25.4568 23.3422C25.5311 23.3065 25.5973 23.2559 25.6512 23.1935C25.7498 23.0745 25.7999 22.9227 25.7916 22.7684C25.7832 22.6141 25.717 22.4687 25.6062 22.361L22.5042 19.259C22.4726 19.2275 22.4484 19.1893 22.4334 19.1473C22.4183 19.1053 22.4129 19.0604 22.4174 19.016C22.422 18.9716 22.4363 18.9287 22.4595 18.8906C22.4827 18.8524 22.5141 18.82 22.5514 18.7955C23.2956 18.3043 24.1619 18.0301 25.0531 18.0036C25.9444 17.9771 26.8254 18.1993 27.5974 18.6455V16.2005C27.5973 16.1182 27.614 16.0367 27.6467 15.9611C27.6793 15.8856 27.7272 15.8175 27.7873 15.7612C27.8473 15.705 27.9183 15.6616 27.9959 15.634C28.0734 15.6063 28.1558 15.5949 28.2379 15.6005C28.3926 15.6139 28.5363 15.6855 28.6403 15.8007C28.7443 15.916 28.8007 16.0663 28.7982 16.2215V18.3522L30.7737 16.376C30.8294 16.3202 30.8956 16.276 30.9685 16.2459C31.0413 16.2157 31.1194 16.2002 31.1982 16.2002C31.277 16.2002 31.3551 16.2157 31.4279 16.2459C31.5008 16.276 31.567 16.3202 31.6227 16.376C31.6784 16.4317 31.7227 16.4979 31.7528 16.5708C31.783 16.6436 31.7985 16.7217 31.7985 16.8005C31.7985 16.8793 31.783 16.9574 31.7528 17.0302C31.7227 17.1031 31.6784 17.1692 31.6227 17.225L29.6464 19.2005H31.7772C31.9324 19.198 32.0827 19.2544 32.198 19.3584C32.3132 19.4624 32.3847 19.6061 32.3982 19.7607C32.4036 19.8428 32.3922 19.9251 32.3645 20.0026C32.3368 20.08 32.2934 20.1509 32.2372 20.2109C32.1809 20.2709 32.1129 20.3187 32.0374 20.3513C31.9619 20.3839 31.8805 20.4007 31.7982 20.4005Z" fill="#545E76"/>
</svg>
