<svg width="68" height="68" viewBox="0 0 68 68" fill="none" xmlns="http://www.w3.org/2000/svg">
<circle cx="34" cy="34" r="33.5" fill="white" stroke="#E5E8EF"/>
<path d="M28.9532 32.4848C31.1223 32.4848 32.8878 34.2488 32.8878 36.4193C32.8878 38.5898 31.1237 40.3538 28.9532 40.3538C26.7843 40.3538 25.0188 38.5898 25.0188 36.4193L25 35.868C25 31.5113 28.5302 27.999 32.869 27.999V30.2415C31.3615 30.2415 29.9642 30.8295 28.8977 31.8953C28.6945 32.0985 28.5123 32.2995 28.3278 32.5388C28.531 32.502 28.7507 32.4848 28.9532 32.4848ZM39.0655 32.4848C41.2345 32.4848 43 34.2488 43 36.4193C43 38.5898 41.236 40.3538 39.0655 40.3538C36.8965 40.3538 35.131 38.5898 35.131 36.4193L35.1122 35.868C35.1122 31.5113 38.6425 27.999 42.9813 27.999V30.2415C41.4925 30.2415 40.0765 30.8295 39.01 31.8953C38.8068 32.0985 38.6245 32.2995 38.4587 32.5388C38.662 32.502 38.863 32.484 39.0662 32.484L39.0655 32.4833V32.4848Z" fill="#545E76"/>
</svg>
