<svg width="16" height="16" viewBox="0 0 16 16" fill="none" xmlns="http://www.w3.org/2000/svg">
<g clip-path="url(#clip0_64_30)">
<path d="M4.57143 0H11.4286C12.641 0 13.8038 0.481631 14.6611 1.33894C15.5184 2.19625 16 3.35901 16 4.57143V11.4286C16 12.641 15.5184 13.8038 14.6611 14.6611C13.8038 15.5184 12.641 16 11.4286 16H4.57143C3.35901 16 2.19625 15.5184 1.33894 14.6611C0.481631 13.8038 0 12.641 0 11.4286V4.57143C0 3.35901 0.481631 2.19625 1.33894 1.33894C2.19625 0.481631 3.35901 0 4.57143 0ZM8 11.4286C8.90931 11.4286 9.78139 11.0673 10.4244 10.4244C11.0673 9.78139 11.4286 8.90931 11.4286 8C11.4286 7.09069 11.0673 6.21862 10.4244 5.57563C9.78139 4.93265 8.90931 4.57143 8 4.57143C7.09069 4.57143 6.21862 4.93265 5.57563 5.57563C4.93265 6.21862 4.57143 7.09069 4.57143 8C4.57143 8.90931 4.93265 9.78139 5.57563 10.4244C6.21862 11.0673 7.09069 11.4286 8 11.4286ZM11.936 5.07886C12.0722 5.08343 12.208 5.06055 12.3351 5.01157C12.4623 4.9626 12.5784 4.88854 12.6763 4.7938C12.7743 4.69905 12.8522 4.58557 12.9054 4.46009C12.9586 4.33462 12.9861 4.19972 12.9861 4.06343C12.9861 3.92714 12.9586 3.79224 12.9054 3.66677C12.8522 3.54129 12.7743 3.4278 12.6763 3.33306C12.5784 3.23832 12.4623 3.16426 12.3351 3.11528C12.208 3.06631 12.0722 3.04343 11.936 3.048C11.6726 3.05684 11.4229 3.16769 11.2397 3.35716C11.0565 3.54662 10.9541 3.79987 10.9541 4.06343C10.9541 4.32699 11.0565 4.58024 11.2397 4.7697C11.4229 4.95917 11.6726 5.07002 11.936 5.07886Z" fill="#111112"/>
</g>
<defs>
<clipPath id="clip0_64_30">
<rect width="16" height="16" fill="white"/>
</clipPath>
</defs>
</svg>
