<svg width="40" height="40" viewBox="0 0 40 40" fill="none" xmlns="http://www.w3.org/2000/svg">
<path d="M11.5887 17.4748C15.2037 17.4748 18.1462 20.4148 18.1462 24.0323C18.1462 27.6498 15.2063 30.5898 11.5887 30.5898C7.97375 30.5898 5.03125 27.6498 5.03125 24.0323L5 23.1135C5 15.8523 10.8837 9.99854 18.115 9.99854V13.736C15.6025 13.736 13.2737 14.716 11.4962 16.4923C11.1575 16.831 10.8538 17.166 10.5463 17.5648C10.885 17.5035 11.2512 17.4748 11.5887 17.4748ZM28.4425 17.4748C32.0575 17.4748 35 20.4148 35 24.0323C35 27.6498 32.06 30.5898 28.4425 30.5898C24.8275 30.5898 21.885 27.6498 21.885 24.0323L21.8538 23.1135C21.8538 15.8523 27.7375 9.99854 34.9688 9.99854V13.736C32.4875 13.736 30.1275 14.716 28.35 16.4923C28.0112 16.831 27.7075 17.166 27.4312 17.5648C27.77 17.5035 28.105 17.4735 28.4437 17.4735L28.4425 17.4723V17.4748Z" fill="white"/>
</svg>
