<svg height="auto" viewBox="0 0 2000 1000" xmlns="http://www.w3.org/2000/svg"><path d="M0 29.382c25 4.53 75 5.25 125 22.65s75 46.994 125 64.353c50 17.36 75 1.092 125 22.443 50 21.35 75 78.658 125 84.311 50 5.654 75-79.188 125-56.042 50 23.145 75 125.23 125 171.769 50 46.538 75 34.063 125 60.925 50 26.861 75 81.978 125 73.382 50-8.597 75-134.03 125-116.364 50 17.666 75 192.993 125 204.694 50 11.702 75-147.017 125-146.188 50 .83 75 148.667 125 150.336 50 1.67 75-146.618 125-141.988 50 4.63 75 141.638 125 165.137 50 23.499 75-125.919 125-47.641 50 78.277 100 351.223 125 439.03V1000H0Z" fill="#444cf71a"/><path d="M0 29.382c25 4.53 75 5.25 125 22.65s75 46.994 125 64.353c50 17.36 75 1.092 125 22.443 50 21.35 75 78.658 125 84.311 50 5.654 75-79.188 125-56.042 50 23.145 75 125.23 125 171.769 50 46.538 75 34.063 125 60.925 50 26.861 75 81.978 125 73.382 50-8.597 75-134.03 125-116.364 50 17.666 75 192.993 125 204.694 50 11.702 75-147.017 125-146.188 50 .83 75 148.667 125 150.336 50 1.67 75-146.618 125-141.988 50 4.63 75 141.638 125 165.137 50 23.499 75-125.919 125-47.641 50 78.277 100 351.223 125 439.03" fill="none" stroke="#444cf7" stroke-width="2"/><g fill="#444cf7"><circle cy="29.382" r="6"/><circle cx="125" cy="52.032" r="6"/><circle cx="250" cy="116.385" r="6"/><circle cx="375" cy="138.828" r="6"/><circle cx="500" cy="223.139" r="6"/><circle cx="625" cy="167.097" r="6"/><circle cx="750" cy="338.866" r="6"/><circle cx="875" cy="399.791" r="6"/><circle cx="1000" cy="473.173" r="6"/><circle cx="1125" cy="356.809" r="6"/><circle cx="1250" cy="561.503" r="6"/><circle cx="1375" cy="415.315" r="6"/><circle cx="1500" cy="565.651" r="6"/><circle cx="1625" cy="423.663" r="6"/><circle cx="1750" cy="588.8" r="6"/><circle cx="1875" cy="541.159" r="6"/><circle cx="2000" cy="980.188" r="6"/></g></svg>