<svg height="auto" viewBox="0 0 2000 1000" xmlns="http://www.w3.org/2000/svg"><path d="M0 1000h50v-2.962q0-5-5-5H5q-5 0-5 5ZM62.5 1000h50v-17.289q0-5-5-5h-40q-5 0-5 5ZM125 1000h50v-50.697q0-5-5-5h-40q-5 0-5 5ZM187.5 1000h50v-78.871q0-5-5-5h-40q-5 0-5 5ZM250 1000h50v-98.994q0-5-5-5h-40q-5 0-5 5ZM312.5 1000h50V895.13q0-5-5-5h-40q-5 0-5 5ZM375 1000h50V815.955q0-5-5-5h-40q-5 0-5 5ZM437.5 1000h50V805.294q0-5-5-5h-40q-5 0-5 5ZM500 1000h50V848.015q0-5-5-5h-40q-5 0-5 5ZM562.5 1000h50V839.884q0-5-5-5h-40q-5 0-5 5ZM625 1000h50V718.23q0-5-5-5h-40q-5 0-5 5ZM687.5 1000h50V776.647q0-5-5-5h-40q-5 0-5 5ZM750 1000h50V751.359q0-5-5-5h-40q-5 0-5 5ZM812.5 1000h50V771.122q0-5-5-5h-40q-5 0-5 5ZM875 1000h50V662.786q0-5-5-5h-40q-5 0-5 5ZM937.5 1000h50V718.32q0-5-5-5h-40q-5 0-5 5ZM1000 1000h50V543.02q0-5-5-5h-40q-5 0-5 5ZM1062.5 1000h50V463.233q0-5-5-5h-40q-5 0-5 5ZM1125 1000h50V536.158q0-5-5-5h-40q-5 0-5 5ZM1187.5 1000h50V575.67q0-5-5-5h-40q-5 0-5 5ZM1250 1000h50V459.79q0-5-5-5h-40q-5 0-5 5ZM1312.5 1000h50V534.227q0-5-5-5h-40q-5 0-5 5ZM1375 1000h50V318.41q0-5-5-5h-40q-5 0-5 5ZM1437.5 1000h50V470.273q0-5-5-5h-40q-5 0-5 5ZM1500 1000h50V434.696q0-5-5-5h-40q-5 0-5 5ZM1562.5 1000h50V229.956q0-5-5-5h-40q-5 0-5 5ZM1625 1000h50V173.707q0-5-5-5h-40q-5 0-5 5ZM1687.5 1000h50V484.51q0-5-5-5h-40q-5 0-5 5ZM1750 1000h50V149.764q0-5-5-5h-40q-5 0-5 5ZM1812.5 1000h50V99.963q0-5-5-5h-40q-5 0-5 5ZM1875 1000h50V191.399q0-5-5-5h-40q-5 0-5 5ZM1937.5 1000h50V423.788q0-5-5-5h-40q-5 0-5 5Z" fill="#444cf7"/></svg>