<svg height="auto" viewBox="0 0 2000 1000" xmlns="http://www.w3.org/2000/svg"><path d="M0 1000h69.565V509.077q0-5-5-5H5q-5 0-5 5ZM86.957 1000h69.565V397.662q0-5-5-5H91.957q-5 0-5 5ZM173.913 1000h69.565V219.332q0-5-5-5h-59.565q-5 0-5 5ZM260.87 1000h69.565V278.957q0-5-5-5H265.87q-5 0-5 5ZM347.826 1000h69.565V525.631q0-5-5-5h-59.565q-5 0-5 5ZM434.783 1000h69.565V802.053q0-5-5-5h-59.565q-5 0-5 5ZM521.74 1000h69.564V651.835q0-5-5-5H526.74q-5 0-5 5ZM608.696 1000h69.565V386.784q0-5-5-5h-59.565q-5 0-5 5ZM695.652 1000h69.565V281.135q0-5-5-5h-59.565q-5 0-5 5ZM782.609 1000h69.565V678.582q0-5-5-5h-59.565q-5 0-5 5ZM869.565 1000h69.565V702.957q0-5-5-5h-59.565q-5 0-5 5ZM956.522 1000h69.565V248.329q0-5-5-5h-59.565q-5 0-5 5ZM1043.478 1000h69.565V662.636q0-5-5-5h-59.565q-5 0-5 5ZM1130.435 1000H1200V336.715q0-5-5-5h-59.565q-5 0-5 5ZM1217.391 1000h69.566V351.58q0-5-5-5h-59.566q-5 0-5 5ZM1304.348 1000h69.565V497.022q0-5-5-5h-59.565q-5 0-5 5ZM1391.304 1000h69.566V418.578q0-5-5-5h-59.566q-5 0-5 5ZM1478.26 1000h69.566V649.149q0-5-5-5h-59.565q-5 0-5 5ZM1565.217 1000h69.566V560.303q0-5-5-5h-59.566q-5 0-5 5ZM1652.174 1000h69.565V483.167q0-5-5-5h-59.565q-5 0-5 5ZM1739.13 1000h69.566V323.868q0-5-5-5h-59.566q-5 0-5 5ZM1826.087 1000h69.565V228.994q0-5-5-5h-59.565q-5 0-5 5ZM1913.043 1000h69.566V283.517q0-5-5-5h-59.566q-5 0-5 5Z" fill="#444cf7"/></svg>