<svg height="auto" viewBox="0 0 2000 1000" xmlns="http://www.w3.org/2000/svg"><path d="M0 1000h50V13.221q0-5-5-5H5q-5 0-5 5ZM62.5 1000h50V35.635q0-5-5-5h-40q-5 0-5 5ZM125 1000h50V48.905q0-5-5-5h-40q-5 0-5 5ZM187.5 1000h50V94.46q0-5-5-5h-40q-5 0-5 5ZM250 1000h50V91.368q0-5-5-5h-40q-5 0-5 5ZM312.5 1000h50V92.165q0-5-5-5h-40q-5 0-5 5ZM375 1000h50V143.698q0-5-5-5h-40q-5 0-5 5ZM437.5 1000h50V165.876q0-5-5-5h-40q-5 0-5 5ZM500 1000h50V206.976q0-5-5-5h-40q-5 0-5 5ZM562.5 1000h50V273.302q0-5-5-5h-40q-5 0-5 5ZM625 1000h50V298.919q0-5-5-5h-40q-5 0-5 5ZM687.5 1000h50V196.68q0-5-5-5h-40q-5 0-5 5ZM750 1000h50V378.036q0-5-5-5h-40q-5 0-5 5ZM812.5 1000h50V298.856q0-5-5-5h-40q-5 0-5 5ZM875 1000h50V245.595q0-5-5-5h-40q-5 0-5 5ZM937.5 1000h50V389.989q0-5-5-5h-40q-5 0-5 5ZM1000 1000h50V308.031q0-5-5-5h-40q-5 0-5 5ZM1062.5 1000h50V347.073q0-5-5-5h-40q-5 0-5 5ZM1125 1000h50V443.838q0-5-5-5h-40q-5 0-5 5ZM1187.5 1000h50V369.458q0-5-5-5h-40q-5 0-5 5ZM1250 1000h50V546.348q0-5-5-5h-40q-5 0-5 5ZM1312.5 1000h50V455.944q0-5-5-5h-40q-5 0-5 5ZM1375 1000h50V412.354q0-5-5-5h-40q-5 0-5 5ZM1437.5 1000h50V548.283q0-5-5-5h-40q-5 0-5 5ZM1500 1000h50V463.455q0-5-5-5h-40q-5 0-5 5ZM1562.5 1000h50V408.215q0-5-5-5h-40q-5 0-5 5ZM1625 1000h50V549.873q0-5-5-5h-40q-5 0-5 5ZM1687.5 1000h50V469.545q0-5-5-5h-40q-5 0-5 5ZM1750 1000h50V476.73q0-5-5-5h-40q-5 0-5 5ZM1812.5 1000h50V880.916q0-5-5-5h-40q-5 0-5 5ZM1875 1000h50V878.568q0-5-5-5h-40q-5 0-5 5ZM1937.5 1000h50V853.094q0-5-5-5h-40q-5 0-5 5Z" fill="#444cf7"/></svg>