<svg height="auto" viewBox="0 0 2000 1000" xmlns="http://www.w3.org/2000/svg"><path d="M0 7.15c8.4 2.104 25.2 4.298 42 10.52 16.8 6.222 25.2 14.844 42 20.589 16.8 5.744 25.2 1.23 42 8.132 16.8 6.901 25.2 21.74 42 26.376 16.8 4.635 25.2-1.602 42-3.2 16.8-1.597 25.2-5.993 42-4.786 16.8 1.206 25.2-1.539 42 10.819 16.8 12.357 25.2 32.99 42 50.968 16.8 17.977 25.2 32.22 42 38.917 16.8 6.698 25.2-1.807 42-5.428 16.8-3.62 25.2-22.359 42-12.674 16.8 9.686 25.2 58.487 42 61.1 16.8 2.614 25.2-64.985 42-48.032 16.8 16.954 25.2 127.425 42 132.801 16.8 5.377 25.2-103.026 42-105.919 16.8-2.893 25.2 63.244 42 91.454 16.8 28.21 25.2 61.818 42 49.6 16.8-12.22 25.2-88.095 42-110.692 16.8-22.597 25.2-7.814 42-2.293 16.8 5.52 25.2-10.347 42 29.895s25.2 136.24 42 171.314c16.8 35.075 25.2 13.4 42 4.059 16.8-9.342 25.2-31.66 42-50.765s25.2-43.88 42-44.76c16.8-.88 25.2 38.527 42 40.358 16.8 1.831 25.2-66.742 42-31.202 16.8 35.54 25.2 169.542 42 208.904 16.8 39.362 25.2-18.103 42-12.092 16.8 6.01 25.2 81.868 42 42.145 16.8-39.724 25.2-224.469 42-240.763 16.8-16.293 25.2 118.138 42 159.294 16.8 41.156 25.2 41.307 42 46.488 16.8 5.18 25.2-53.837 42-20.586 16.8 33.25 25.2 172.98 42 186.84 16.8 13.861 25.2-84.623 42-117.539s25.2-64.605 42-47.04c16.8 17.564 25.2 159.19 42 134.864 16.8-24.327 25.2-205.396 42-256.499 16.8-51.102 25.2-24.782 42 .984 16.8 25.767 25.2 41.15 42 127.85 16.8 86.702 25.2 287.222 42 305.656 16.8 18.433 25.2-169.89 42-213.487 16.8-43.596 25.2-53.709 42-4.496 16.8 49.214 25.2 227.088 42 250.562 16.8 23.475 25.2-145.09 42-133.188 16.8 11.902 25.2 170.86 42 192.698 16.8 21.837 25.2-23.117 42-83.511 16.8-60.394 33.6-174.767 42-218.459L2000 1000H0Z" fill="#444cf71a"/><path d="M0 7.15c8.4 2.104 25.2 4.298 42 10.52 16.8 6.222 25.2 14.844 42 20.589 16.8 5.744 25.2 1.23 42 8.132 16.8 6.901 25.2 21.74 42 26.376 16.8 4.635 25.2-1.602 42-3.2 16.8-1.597 25.2-5.993 42-4.786 16.8 1.206 25.2-1.539 42 10.819 16.8 12.357 25.2 32.99 42 50.968 16.8 17.977 25.2 32.22 42 38.917 16.8 6.698 25.2-1.807 42-5.428 16.8-3.62 25.2-22.359 42-12.674 16.8 9.686 25.2 58.487 42 61.1 16.8 2.614 25.2-64.985 42-48.032 16.8 16.954 25.2 127.425 42 132.801 16.8 5.377 25.2-103.026 42-105.919 16.8-2.893 25.2 63.244 42 91.454 16.8 28.21 25.2 61.818 42 49.6 16.8-12.22 25.2-88.095 42-110.692 16.8-22.597 25.2-7.814 42-2.293 16.8 5.52 25.2-10.347 42 29.895s25.2 136.24 42 171.314c16.8 35.075 25.2 13.4 42 4.059 16.8-9.342 25.2-31.66 42-50.765s25.2-43.88 42-44.76c16.8-.88 25.2 38.527 42 40.358 16.8 1.831 25.2-66.742 42-31.202 16.8 35.54 25.2 169.542 42 208.904 16.8 39.362 25.2-18.103 42-12.092 16.8 6.01 25.2 81.868 42 42.145 16.8-39.724 25.2-224.469 42-240.763 16.8-16.293 25.2 118.138 42 159.294 16.8 41.156 25.2 41.307 42 46.488 16.8 5.18 25.2-53.837 42-20.586 16.8 33.25 25.2 172.98 42 186.84 16.8 13.861 25.2-84.623 42-117.539s25.2-64.605 42-47.04c16.8 17.564 25.2 159.19 42 134.864 16.8-24.327 25.2-205.396 42-256.499 16.8-51.102 25.2-24.782 42 .984 16.8 25.767 25.2 41.15 42 127.85 16.8 86.702 25.2 287.222 42 305.656 16.8 18.433 25.2-169.89 42-213.487 16.8-43.596 25.2-53.709 42-4.496 16.8 49.214 25.2 227.088 42 250.562 16.8 23.475 25.2-145.09 42-133.188 16.8 11.902 25.2 170.86 42 192.698 16.8 21.837 25.2-23.117 42-83.511 16.8-60.394 33.6-174.767 42-218.459" fill="none" stroke="#444cf7" stroke-width="2"/><g fill="#444cf7"><circle cy="7.15" r="6"/><circle cx="42" cy="17.67" r="6"/><circle cx="84" cy="38.259" r="6"/><circle cx="126" cy="46.391" r="6"/><circle cx="168" cy="72.767" r="6"/><circle cx="210" cy="69.568" r="6"/><circle cx="252" cy="64.781" r="6"/><circle cx="294" cy="75.6" r="6"/><circle cx="336" cy="126.568" r="6"/><circle cx="378" cy="165.485" r="6"/><circle cx="420" cy="160.057" r="6"/><circle cx="462" cy="147.383" r="6"/><circle cx="504" cy="208.484" r="6"/><circle cx="546" cy="160.451" r="6"/><circle cx="588" cy="293.252" r="6"/><circle cx="630" cy="187.333" r="6"/><circle cx="672" cy="278.787" r="6"/><circle cx="714" cy="328.386" r="6"/><circle cx="756" cy="217.695" r="6"/><circle cx="798" cy="215.402" r="6"/><circle cx="840" cy="245.297" r="6"/><circle cx="882" cy="416.611" r="6"/><circle cx="924" cy="420.67" r="6"/><circle cx="966" cy="369.905" r="6"/><circle cx="1008" cy="325.145" r="6"/><circle cx="1050" cy="365.503" r="6"/><circle cx="1092" cy="334.301" r="6"/><circle cx="1134" cy="543.205" r="6"/><circle cx="1176" cy="531.113" r="6"/><circle cx="1218" cy="573.258" r="6"/><circle cx="1260" cy="332.495" r="6"/><circle cx="1302" cy="491.789" r="6"/><circle cx="1344" cy="538.277" r="6"/><circle cx="1386" cy="517.691" r="6"/><circle cx="1428" cy="704.532" r="6"/><circle cx="1470" cy="586.992" r="6"/><circle cx="1512" cy="539.952" r="6"/><circle cx="1554" cy="674.816" r="6"/><circle cx="1596" cy="418.317" r="6"/><circle cx="1638" cy="419.301" r="6"/><circle cx="1680" cy="547.152" r="6"/><circle cx="1722" cy="852.807" r="6"/><circle cx="1764" cy="639.32" r="6"/><circle cx="1806" cy="634.824" r="6"/><circle cx="1848" cy="885.386" r="6"/><circle cx="1890" cy="752.198" r="6"/><circle cx="1932" cy="944.896" r="6"/><circle cx="1974" cy="861.385" r="6"/><circle cx="2016" cy="642.926" r="6"/></g></svg>