<svg height="auto" viewBox="0 0 2000 1000" xmlns="http://www.w3.org/2000/svg"><path d="M0 989.595c25-4.52 75-2.999 125-22.602s75-50.028 125-75.414c50-25.385 75-40.164 125-51.513 50-11.348 75 7.498 125-5.23 50-12.726 75-20.862 125-58.405 50-37.543 75-120.138 125-129.309 50-9.17 75 105.879 125 83.454 50-22.424 75-183.56 125-195.576 50-12.016 75 132.828 125 135.496 50 2.669 75-90.23 125-122.154 50-31.923 75-32.744 125-37.465 50-4.721 75 16.341 125 13.861 50-2.48 75-23.544 125-26.263 50-2.719 75 16.476 125 12.667 50-3.81 75-15.586 125-31.712 50-16.127 100-39.137 125-48.92V1000H0Z" fill="#444cf71a"/><path d="M0 989.595c25-4.52 75-2.999 125-22.602s75-50.028 125-75.414c50-25.385 75-40.164 125-51.513 50-11.348 75 7.498 125-5.23 50-12.726 75-20.862 125-58.405 50-37.543 75-120.138 125-129.309 50-9.17 75 105.879 125 83.454 50-22.424 75-183.56 125-195.576 50-12.016 75 132.828 125 135.496 50 2.669 75-90.23 125-122.154 50-31.923 75-32.744 125-37.465 50-4.721 75 16.341 125 13.861 50-2.48 75-23.544 125-26.263 50-2.719 75 16.476 125 12.667 50-3.81 75-15.586 125-31.712 50-16.127 100-39.137 125-48.92" fill="none" stroke="#444cf7" stroke-width="2"/><g fill="#444cf7"><circle cy="989.595" r="6"/><circle cx="125" cy="966.993" r="6"/><circle cx="250" cy="891.579" r="6"/><circle cx="375" cy="840.066" r="6"/><circle cx="500" cy="834.837" r="6"/><circle cx="625" cy="776.431" r="6"/><circle cx="750" cy="647.122" r="6"/><circle cx="875" cy="730.576" r="6"/><circle cx="1000" cy="535" r="6"/><circle cx="1125" cy="670.496" r="6"/><circle cx="1250" cy="548.342" r="6"/><circle cx="1375" cy="510.877" r="6"/><circle cx="1500" cy="524.738" r="6"/><circle cx="1625" cy="498.475" r="6"/><circle cx="1750" cy="511.142" r="6"/><circle cx="1875" cy="479.43" r="6"/><circle cx="2000" cy="430.509" r="6"/></g></svg>