<svg width="16" height="14" viewBox="0 0 16 14" fill="none" xmlns="http://www.w3.org/2000/svg">
<path fill-rule="evenodd" clip-rule="evenodd" d="M4.88506 13.9989C11.1321 13.9989 14.5491 8.82288 14.5491 4.33488C14.5491 4.18788 14.5491 4.04087 14.5391 3.89587C15.0841 3.50187 15.5681 3.02988 15.9761 2.49787C16.0091 2.45187 16.0081 2.38987 15.9731 2.34487C15.9391 2.29988 15.8801 2.28288 15.8271 2.30288C15.3291 2.48488 14.8111 2.60987 14.2831 2.67188C14.9141 2.29488 15.4031 1.72388 15.6821 1.04988C15.6971 1.01088 15.6851 0.966875 15.6541 0.939875C15.6231 0.912875 15.5781 0.907875 15.5411 0.927875C14.9391 1.25188 14.2911 1.48487 13.6201 1.61787C12.9771 0.934875 12.0801 0.546875 11.1431 0.546875C9.27806 0.546875 7.74306 2.08188 7.74306 3.94688C7.74306 4.20588 7.77306 4.46388 7.83106 4.71588C5.17206 4.58188 2.68706 3.35387 0.967059 1.32987C0.936059 1.29287 0.888059 1.27387 0.840059 1.27887C0.792059 1.28387 0.749059 1.31288 0.727059 1.35588C-0.0259413 2.87087 0.458059 4.74988 1.88206 5.70087C1.49506 5.68887 0.872059 5.49787 0.549059 5.39087C0.502059 5.37488 0.451059 5.38387 0.412059 5.41388C0.372059 5.44388 0.351059 5.49188 0.354059 5.54087C0.434059 6.21987 0.846059 8.24487 3.06606 8.64787C2.63106 8.76688 2.17806 8.79788 1.73306 8.73888C1.69006 8.73288 1.64706 8.74988 1.62006 8.78288C1.59306 8.81688 1.58606 8.86187 1.60106 8.90187C2.09906 10.1759 3.32506 11.0399 4.70506 11.0659C3.91006 11.6899 2.99106 12.1269 2.01806 12.3499C1.70006 12.4229 0.945059 12.4659 0.371059 12.4799C0.286059 12.4769 0.210059 12.5339 0.187059 12.6159C0.165059 12.6989 0.201059 12.7859 0.276059 12.8279C1.68706 13.5949 3.27106 13.9989 4.88506 13.9969" fill="#111112"/>
</svg>
