<svg width="24" height="24" viewBox="0 0 24 24" fill="none" xmlns="http://www.w3.org/2000/svg">
<path d="M19.6933 13.8108C20.4013 14.5748 21.1479 15.2922 21.7826 16.1322C22.0626 16.5055 22.3293 16.8908 22.5319 17.3242C22.8199 17.9402 22.5586 18.6175 22.0586 18.6548L18.9519 18.6522C18.1493 18.7268 17.5106 18.3695 16.9719 17.7642C16.5426 17.2802 16.1439 16.7642 15.7293 16.2655C15.5669 16.0591 15.3787 15.8745 15.1693 15.7162C14.7466 15.4122 14.3786 15.5042 14.1359 15.9935C13.8879 16.4908 13.8319 17.0415 13.8079 17.5948C13.7746 18.4028 13.5546 18.6162 12.8186 18.6522C11.2479 18.7348 9.75727 18.4722 8.37194 17.5962C7.1506 16.8255 6.20394 15.7362 5.3786 14.5028C3.7746 12.1015 2.5466 9.46283 1.44127 6.7495C1.19194 6.13883 1.37327 5.81083 1.98527 5.80016C2.99893 5.77861 4.01291 5.77772 5.0266 5.7975C5.4386 5.80416 5.7106 6.06416 5.8706 6.49483C6.4186 7.98416 7.08927 9.4015 7.93194 10.7162C8.15727 11.0655 8.38527 11.4148 8.71194 11.6615C9.07194 11.9335 9.34661 11.8428 9.51594 11.4002C9.62261 11.1188 9.67061 10.8162 9.69461 10.5148C9.77461 9.47883 9.78527 8.44416 9.64527 7.41216C9.55861 6.76816 9.22927 6.35083 8.64794 6.2295C8.35061 6.16683 8.3946 6.04416 8.5386 5.8575C8.78927 5.53483 9.02394 5.3335 9.49327 5.3335H13.0053C13.5586 5.4535 13.6813 5.72816 13.7573 6.34283L13.7599 10.6522C13.7533 10.8895 13.8666 11.5962 14.2559 11.7535C14.5653 11.8655 14.7706 11.5908 14.9573 11.3735C15.7973 10.3868 16.3973 9.22283 16.9346 8.01616C17.1719 7.4855 17.3773 6.93616 17.5746 6.38416C17.7213 5.97616 17.9519 5.77483 18.3693 5.78416L21.7493 5.78816C21.8493 5.78816 21.9506 5.78816 22.0479 5.80683C22.6186 5.9135 22.7746 6.1855 22.5986 6.80016C22.3213 7.76416 21.7813 8.56683 21.2546 9.3735C20.6906 10.2348 20.0879 11.0668 19.5279 11.9335C19.0146 12.7255 19.0559 13.1242 19.6933 13.8108V13.8108Z" fill="#2C323A"/>
</svg>
