<svg width="100" height="100" viewBox="0 0 100 100" fill="none" xmlns="http://www.w3.org/2000/svg">
<circle opacity="0.1" cx="50" cy="50" r="50" fill="white"/>
<path d="M53.44 37.1014C53.2717 37.0192 53.0837 36.986 52.8974 37.0054C52.7111 37.0249 52.534 37.0962 52.3862 37.2114L43.6562 44.0002H38C37.4696 44.0002 36.9609 44.2109 36.5858 44.586C36.2107 44.961 36 45.4697 36 46.0002V54.0002C36 54.5306 36.2107 55.0393 36.5858 55.4144C36.9609 55.7895 37.4696 56.0002 38 56.0002H43.6562L52.3862 62.7889C52.5614 62.9261 52.7775 63.0005 53 63.0002C53.2652 63.0002 53.5196 62.8948 53.7071 62.7073C53.8946 62.5197 54 62.2654 54 62.0002V38.0002C54.0001 37.813 53.9477 37.6295 53.8487 37.4706C53.7497 37.3117 53.6081 37.1838 53.44 37.1014Z" fill="white"/>
<path d="M62.4138 50.0001L64.7076 47.7076C64.8952 47.5199 65.0006 47.2654 65.0006 47.0001C65.0006 46.7347 64.8952 46.4802 64.7076 46.2926C64.5199 46.1049 64.2654 45.9995 64.0001 45.9995C63.7347 45.9995 63.4802 46.1049 63.2926 46.2926L61.0001 48.5863L58.7076 46.2926C58.5199 46.1049 58.2654 45.9995 58.0001 45.9995C57.7347 45.9995 57.4802 46.1049 57.2926 46.2926C57.1049 46.4802 56.9995 46.7347 56.9995 47.0001C56.9995 47.2654 57.1049 47.5199 57.2926 47.7076L59.5863 50.0001L57.2926 52.2926C57.1049 52.4802 56.9995 52.7347 56.9995 53.0001C56.9995 53.2654 57.1049 53.5199 57.2926 53.7076C57.4802 53.8952 57.7347 54.0006 58.0001 54.0006C58.2654 54.0006 58.5199 53.8952 58.7076 53.7076L61.0001 51.4138L63.2926 53.7076C63.4802 53.8952 63.7347 54.0006 64.0001 54.0006C64.2654 54.0006 64.5199 53.8952 64.7076 53.7076C64.8952 53.5199 65.0006 53.2654 65.0006 53.0001C65.0006 52.7347 64.8952 52.4802 64.7076 52.2926L62.4138 50.0001Z" fill="white"/>
</svg>
